<mxfile host="app.diagrams.net" agent="Mozilla/5.0 (Windows NT 10.0; Win64; x64) AppleWebKit/537.36 (KHTML, like Gecko) Chrome/131.0.0.0 Safari/537.36" version="25.0.3">
  <diagram name="Страница — 1" id="ebdxqljjL9oTuUYJQ577">
    <mxGraphModel dx="1509" dy="785" grid="1" gridSize="10" guides="1" tooltips="1" connect="1" arrows="1" fold="1" page="1" pageScale="1" pageWidth="1654" pageHeight="1169" math="0" shadow="0">
      <root>
        <mxCell id="0" />
        <mxCell id="1" parent="0" />
        <mxCell id="-5yCZfLTDM8mfpF4syUg-1" value="System" style="swimlane;fontStyle=1;align=center;verticalAlign=top;childLayout=stackLayout;horizontal=1;startSize=26;horizontalStack=0;resizeParent=1;resizeParentMax=0;resizeLast=0;collapsible=1;marginBottom=0;whiteSpace=wrap;html=1;" vertex="1" parent="1">
          <mxGeometry x="210" y="170" width="160" height="130" as="geometry" />
        </mxCell>
        <mxCell id="-5yCZfLTDM8mfpF4syUg-3" value="" style="line;strokeWidth=1;fillColor=none;align=left;verticalAlign=middle;spacingTop=-1;spacingLeft=3;spacingRight=3;rotatable=0;labelPosition=right;points=[];portConstraint=eastwest;strokeColor=inherit;" vertex="1" parent="-5yCZfLTDM8mfpF4syUg-1">
          <mxGeometry y="26" width="160" height="8" as="geometry" />
        </mxCell>
        <mxCell id="-5yCZfLTDM8mfpF4syUg-4" value="&lt;div&gt;+&amp;nbsp;&lt;span style=&quot;background-color: initial;&quot;&gt;signIn(userName:string, password:string):boolean&lt;/span&gt;&lt;/div&gt;&lt;div&gt;+ signOut():void&lt;/div&gt;&lt;div&gt;+ viewAllRequests(): List&amp;lt;Requests&amp;gt;&lt;/div&gt;&lt;div&gt;&lt;br&gt;&lt;/div&gt;" style="text;strokeColor=none;fillColor=none;align=left;verticalAlign=top;spacingLeft=4;spacingRight=4;overflow=hidden;rotatable=0;points=[[0,0.5],[1,0.5]];portConstraint=eastwest;whiteSpace=wrap;html=1;" vertex="1" parent="-5yCZfLTDM8mfpF4syUg-1">
          <mxGeometry y="34" width="160" height="96" as="geometry" />
        </mxCell>
        <mxCell id="-5yCZfLTDM8mfpF4syUg-5" value="Tenant" style="swimlane;fontStyle=1;align=center;verticalAlign=top;childLayout=stackLayout;horizontal=1;startSize=26;horizontalStack=0;resizeParent=1;resizeParentMax=0;resizeLast=0;collapsible=1;marginBottom=0;whiteSpace=wrap;html=1;" vertex="1" parent="1">
          <mxGeometry x="260" y="450" width="210" height="170" as="geometry" />
        </mxCell>
        <mxCell id="-5yCZfLTDM8mfpF4syUg-6" value="userName: string&#xa;password: string" style="text;strokeColor=none;fillColor=none;align=left;verticalAlign=top;spacingLeft=4;spacingRight=4;overflow=hidden;rotatable=0;points=[[0,0.5],[1,0.5]];portConstraint=eastwest;whiteSpace=wrap;html=1;" vertex="1" parent="-5yCZfLTDM8mfpF4syUg-5">
          <mxGeometry y="26" width="210" height="34" as="geometry" />
        </mxCell>
        <mxCell id="-5yCZfLTDM8mfpF4syUg-7" value="" style="line;strokeWidth=1;fillColor=none;align=left;verticalAlign=middle;spacingTop=-1;spacingLeft=3;spacingRight=3;rotatable=0;labelPosition=right;points=[];portConstraint=eastwest;strokeColor=inherit;" vertex="1" parent="-5yCZfLTDM8mfpF4syUg-5">
          <mxGeometry y="60" width="210" height="8" as="geometry" />
        </mxCell>
        <mxCell id="-5yCZfLTDM8mfpF4syUg-8" value="&lt;div&gt;+&amp;nbsp;&lt;span style=&quot;background-color: initial;&quot;&gt;signIn():boolean&lt;/span&gt;&lt;/div&gt;&lt;div&gt;+ signOut():void&lt;/div&gt;&lt;div&gt;+ CreateRequest(): Request&lt;/div&gt;&lt;div&gt;+ viewRequests(): List&amp;lt;Request&amp;gt;&lt;/div&gt;" style="text;strokeColor=none;fillColor=none;align=left;verticalAlign=top;spacingLeft=4;spacingRight=4;overflow=hidden;rotatable=0;points=[[0,0.5],[1,0.5]];portConstraint=eastwest;whiteSpace=wrap;html=1;" vertex="1" parent="-5yCZfLTDM8mfpF4syUg-5">
          <mxGeometry y="68" width="210" height="102" as="geometry" />
        </mxCell>
        <mxCell id="-5yCZfLTDM8mfpF4syUg-34" style="edgeStyle=orthogonalEdgeStyle;rounded=0;orthogonalLoop=1;jettySize=auto;html=1;exitX=0.5;exitY=0;exitDx=0;exitDy=0;" edge="1" parent="1" source="-5yCZfLTDM8mfpF4syUg-11" target="-5yCZfLTDM8mfpF4syUg-19">
          <mxGeometry relative="1" as="geometry" />
        </mxCell>
        <mxCell id="-5yCZfLTDM8mfpF4syUg-11" value="Request" style="swimlane;fontStyle=1;align=center;verticalAlign=top;childLayout=stackLayout;horizontal=1;startSize=26;horizontalStack=0;resizeParent=1;resizeParentMax=0;resizeLast=0;collapsible=1;marginBottom=0;whiteSpace=wrap;html=1;" vertex="1" parent="1">
          <mxGeometry x="660" y="510" width="210" height="210" as="geometry" />
        </mxCell>
        <mxCell id="-5yCZfLTDM8mfpF4syUg-12" value="Id:int&#xa;workType: String&#xa;scale: String&#xa;time: String" style="text;strokeColor=none;fillColor=none;align=left;verticalAlign=top;spacingLeft=4;spacingRight=4;overflow=hidden;rotatable=0;points=[[0,0.5],[1,0.5]];portConstraint=eastwest;whiteSpace=wrap;html=1;" vertex="1" parent="-5yCZfLTDM8mfpF4syUg-11">
          <mxGeometry y="26" width="210" height="74" as="geometry" />
        </mxCell>
        <mxCell id="-5yCZfLTDM8mfpF4syUg-13" value="" style="line;strokeWidth=1;fillColor=none;align=left;verticalAlign=middle;spacingTop=-1;spacingLeft=3;spacingRight=3;rotatable=0;labelPosition=right;points=[];portConstraint=eastwest;strokeColor=inherit;" vertex="1" parent="-5yCZfLTDM8mfpF4syUg-11">
          <mxGeometry y="100" width="210" height="40" as="geometry" />
        </mxCell>
        <mxCell id="-5yCZfLTDM8mfpF4syUg-14" value="&lt;div&gt;+ submitRequest(): void&lt;/div&gt;&lt;div&gt;+ updateRequest(): void&lt;/div&gt;&lt;div&gt;+ cancelRequest(): void&lt;/div&gt;" style="text;strokeColor=none;fillColor=none;align=left;verticalAlign=top;spacingLeft=4;spacingRight=4;overflow=hidden;rotatable=0;points=[[0,0.5],[1,0.5]];portConstraint=eastwest;whiteSpace=wrap;html=1;" vertex="1" parent="-5yCZfLTDM8mfpF4syUg-11">
          <mxGeometry y="140" width="210" height="70" as="geometry" />
        </mxCell>
        <mxCell id="-5yCZfLTDM8mfpF4syUg-16" value="Dispather" style="swimlane;fontStyle=1;align=center;verticalAlign=top;childLayout=stackLayout;horizontal=1;startSize=26;horizontalStack=0;resizeParent=1;resizeParentMax=0;resizeLast=0;collapsible=1;marginBottom=0;whiteSpace=wrap;html=1;" vertex="1" parent="1">
          <mxGeometry x="960" y="110" width="310" height="160" as="geometry" />
        </mxCell>
        <mxCell id="-5yCZfLTDM8mfpF4syUg-17" value="name: String" style="text;strokeColor=none;fillColor=none;align=left;verticalAlign=top;spacingLeft=4;spacingRight=4;overflow=hidden;rotatable=0;points=[[0,0.5],[1,0.5]];portConstraint=eastwest;whiteSpace=wrap;html=1;" vertex="1" parent="-5yCZfLTDM8mfpF4syUg-16">
          <mxGeometry y="26" width="310" height="34" as="geometry" />
        </mxCell>
        <mxCell id="-5yCZfLTDM8mfpF4syUg-18" value="" style="line;strokeWidth=1;fillColor=none;align=left;verticalAlign=middle;spacingTop=-1;spacingLeft=3;spacingRight=3;rotatable=0;labelPosition=right;points=[];portConstraint=eastwest;strokeColor=inherit;" vertex="1" parent="-5yCZfLTDM8mfpF4syUg-16">
          <mxGeometry y="60" width="310" height="30" as="geometry" />
        </mxCell>
        <mxCell id="-5yCZfLTDM8mfpF4syUg-19" value="&lt;div&gt;+registerRequest(request:Request):void&lt;/div&gt;&lt;div&gt;+&amp;nbsp;&lt;span style=&quot;background-color: initial;&quot;&gt;AssignBridge(request:Request, brigade: Brigade): void&lt;/span&gt;&lt;/div&gt;" style="text;strokeColor=none;fillColor=none;align=left;verticalAlign=top;spacingLeft=4;spacingRight=4;overflow=hidden;rotatable=0;points=[[0,0.5],[1,0.5]];portConstraint=eastwest;whiteSpace=wrap;html=1;" vertex="1" parent="-5yCZfLTDM8mfpF4syUg-16">
          <mxGeometry y="90" width="310" height="70" as="geometry" />
        </mxCell>
        <mxCell id="-5yCZfLTDM8mfpF4syUg-20" value="Brigade" style="swimlane;fontStyle=1;align=center;verticalAlign=top;childLayout=stackLayout;horizontal=1;startSize=26;horizontalStack=0;resizeParent=1;resizeParentMax=0;resizeLast=0;collapsible=1;marginBottom=0;whiteSpace=wrap;html=1;" vertex="1" parent="1">
          <mxGeometry x="940" y="370" width="310" height="160" as="geometry" />
        </mxCell>
        <mxCell id="-5yCZfLTDM8mfpF4syUg-21" value="&lt;div&gt;Id:int&lt;/div&gt;&lt;div&gt;members: List&amp;lt;string&amp;gt;&lt;/div&gt;" style="text;strokeColor=none;fillColor=none;align=left;verticalAlign=top;spacingLeft=4;spacingRight=4;overflow=hidden;rotatable=0;points=[[0,0.5],[1,0.5]];portConstraint=eastwest;whiteSpace=wrap;html=1;" vertex="1" parent="-5yCZfLTDM8mfpF4syUg-20">
          <mxGeometry y="26" width="310" height="34" as="geometry" />
        </mxCell>
        <mxCell id="-5yCZfLTDM8mfpF4syUg-22" value="" style="line;strokeWidth=1;fillColor=none;align=left;verticalAlign=middle;spacingTop=-1;spacingLeft=3;spacingRight=3;rotatable=0;labelPosition=right;points=[];portConstraint=eastwest;strokeColor=inherit;" vertex="1" parent="-5yCZfLTDM8mfpF4syUg-20">
          <mxGeometry y="60" width="310" height="30" as="geometry" />
        </mxCell>
        <mxCell id="-5yCZfLTDM8mfpF4syUg-23" value="&lt;div&gt;+ assignToRequest(request:Request):void&lt;/div&gt;&lt;div&gt;+ performWork(): void&lt;/div&gt;" style="text;strokeColor=none;fillColor=none;align=left;verticalAlign=top;spacingLeft=4;spacingRight=4;overflow=hidden;rotatable=0;points=[[0,0.5],[1,0.5]];portConstraint=eastwest;whiteSpace=wrap;html=1;" vertex="1" parent="-5yCZfLTDM8mfpF4syUg-20">
          <mxGeometry y="90" width="310" height="70" as="geometry" />
        </mxCell>
        <mxCell id="-5yCZfLTDM8mfpF4syUg-24" value="WorkPlan" style="swimlane;fontStyle=1;align=center;verticalAlign=top;childLayout=stackLayout;horizontal=1;startSize=26;horizontalStack=0;resizeParent=1;resizeParentMax=0;resizeLast=0;collapsible=1;marginBottom=0;whiteSpace=wrap;html=1;" vertex="1" parent="1">
          <mxGeometry x="570" y="40" width="310" height="160" as="geometry" />
        </mxCell>
        <mxCell id="-5yCZfLTDM8mfpF4syUg-25" value="&lt;div&gt;requests: List&amp;lt;Request&amp;gt;&lt;/div&gt;" style="text;strokeColor=none;fillColor=none;align=left;verticalAlign=top;spacingLeft=4;spacingRight=4;overflow=hidden;rotatable=0;points=[[0,0.5],[1,0.5]];portConstraint=eastwest;whiteSpace=wrap;html=1;" vertex="1" parent="-5yCZfLTDM8mfpF4syUg-24">
          <mxGeometry y="26" width="310" height="34" as="geometry" />
        </mxCell>
        <mxCell id="-5yCZfLTDM8mfpF4syUg-26" value="" style="line;strokeWidth=1;fillColor=none;align=left;verticalAlign=middle;spacingTop=-1;spacingLeft=3;spacingRight=3;rotatable=0;labelPosition=right;points=[];portConstraint=eastwest;strokeColor=inherit;" vertex="1" parent="-5yCZfLTDM8mfpF4syUg-24">
          <mxGeometry y="60" width="310" height="30" as="geometry" />
        </mxCell>
        <mxCell id="-5yCZfLTDM8mfpF4syUg-27" value="&lt;div&gt;-addRequest(request:Request):void&lt;/div&gt;&lt;div&gt;-getRequest(id:int): Request&lt;/div&gt;" style="text;strokeColor=none;fillColor=none;align=left;verticalAlign=top;spacingLeft=4;spacingRight=4;overflow=hidden;rotatable=0;points=[[0,0.5],[1,0.5]];portConstraint=eastwest;whiteSpace=wrap;html=1;" vertex="1" parent="-5yCZfLTDM8mfpF4syUg-24">
          <mxGeometry y="90" width="310" height="70" as="geometry" />
        </mxCell>
        <mxCell id="-5yCZfLTDM8mfpF4syUg-30" value="" style="endArrow=none;html=1;edgeStyle=orthogonalEdgeStyle;rounded=0;exitX=1.005;exitY=0.618;exitDx=0;exitDy=0;exitPerimeter=0;entryX=0;entryY=0.5;entryDx=0;entryDy=0;" edge="1" parent="1" source="-5yCZfLTDM8mfpF4syUg-6" target="-5yCZfLTDM8mfpF4syUg-12">
          <mxGeometry relative="1" as="geometry">
            <mxPoint x="560" y="760" as="sourcePoint" />
            <mxPoint x="720" y="760" as="targetPoint" />
          </mxGeometry>
        </mxCell>
        <mxCell id="-5yCZfLTDM8mfpF4syUg-31" value="1" style="edgeLabel;resizable=0;html=1;align=left;verticalAlign=bottom;" connectable="0" vertex="1" parent="-5yCZfLTDM8mfpF4syUg-30">
          <mxGeometry x="-1" relative="1" as="geometry" />
        </mxCell>
        <mxCell id="-5yCZfLTDM8mfpF4syUg-32" value="*" style="edgeLabel;resizable=0;html=1;align=right;verticalAlign=bottom;" connectable="0" vertex="1" parent="-5yCZfLTDM8mfpF4syUg-30">
          <mxGeometry x="1" relative="1" as="geometry" />
        </mxCell>
        <mxCell id="-5yCZfLTDM8mfpF4syUg-43" value="Создание запроса" style="edgeLabel;html=1;align=center;verticalAlign=middle;resizable=0;points=[];" vertex="1" connectable="0" parent="-5yCZfLTDM8mfpF4syUg-30">
          <mxGeometry x="0.0199" y="-1" relative="1" as="geometry">
            <mxPoint as="offset" />
          </mxGeometry>
        </mxCell>
        <mxCell id="-5yCZfLTDM8mfpF4syUg-33" style="edgeStyle=orthogonalEdgeStyle;rounded=0;orthogonalLoop=1;jettySize=auto;html=1;exitX=1;exitY=0.5;exitDx=0;exitDy=0;" edge="1" parent="1" source="-5yCZfLTDM8mfpF4syUg-4" target="-5yCZfLTDM8mfpF4syUg-5">
          <mxGeometry relative="1" as="geometry" />
        </mxCell>
        <mxCell id="-5yCZfLTDM8mfpF4syUg-42" value="Управление полтзовалетем" style="edgeLabel;html=1;align=center;verticalAlign=middle;resizable=0;points=[];" vertex="1" connectable="0" parent="-5yCZfLTDM8mfpF4syUg-33">
          <mxGeometry x="0.2469" y="1" relative="1" as="geometry">
            <mxPoint as="offset" />
          </mxGeometry>
        </mxCell>
        <mxCell id="-5yCZfLTDM8mfpF4syUg-35" style="edgeStyle=orthogonalEdgeStyle;rounded=0;orthogonalLoop=1;jettySize=auto;html=1;exitX=1;exitY=0.5;exitDx=0;exitDy=0;" edge="1" parent="1" source="-5yCZfLTDM8mfpF4syUg-19" target="-5yCZfLTDM8mfpF4syUg-20">
          <mxGeometry relative="1" as="geometry" />
        </mxCell>
        <mxCell id="-5yCZfLTDM8mfpF4syUg-39" value="Назначает" style="edgeLabel;html=1;align=center;verticalAlign=middle;resizable=0;points=[];" vertex="1" connectable="0" parent="-5yCZfLTDM8mfpF4syUg-35">
          <mxGeometry x="-0.0328" relative="1" as="geometry">
            <mxPoint as="offset" />
          </mxGeometry>
        </mxCell>
        <mxCell id="-5yCZfLTDM8mfpF4syUg-36" style="edgeStyle=orthogonalEdgeStyle;rounded=0;orthogonalLoop=1;jettySize=auto;html=1;exitX=0;exitY=0.5;exitDx=0;exitDy=0;entryX=0.5;entryY=0;entryDx=0;entryDy=0;" edge="1" parent="1" source="-5yCZfLTDM8mfpF4syUg-17" target="-5yCZfLTDM8mfpF4syUg-24">
          <mxGeometry relative="1" as="geometry" />
        </mxCell>
        <mxCell id="-5yCZfLTDM8mfpF4syUg-41" value="Добавляется" style="edgeLabel;html=1;align=center;verticalAlign=middle;resizable=0;points=[];" vertex="1" connectable="0" parent="-5yCZfLTDM8mfpF4syUg-36">
          <mxGeometry x="-0.4347" y="3" relative="1" as="geometry">
            <mxPoint as="offset" />
          </mxGeometry>
        </mxCell>
        <mxCell id="-5yCZfLTDM8mfpF4syUg-37" style="edgeStyle=orthogonalEdgeStyle;rounded=0;orthogonalLoop=1;jettySize=auto;html=1;exitX=1;exitY=0.5;exitDx=0;exitDy=0;" edge="1" parent="1" source="-5yCZfLTDM8mfpF4syUg-23" target="-5yCZfLTDM8mfpF4syUg-14">
          <mxGeometry relative="1" as="geometry" />
        </mxCell>
        <mxCell id="-5yCZfLTDM8mfpF4syUg-38" value="Выполняет" style="edgeLabel;html=1;align=center;verticalAlign=middle;resizable=0;points=[];" vertex="1" connectable="0" parent="-5yCZfLTDM8mfpF4syUg-37">
          <mxGeometry x="0.2925" y="-1" relative="1" as="geometry">
            <mxPoint as="offset" />
          </mxGeometry>
        </mxCell>
      </root>
    </mxGraphModel>
  </diagram>
</mxfile>
